<?xml version="1.0" encoding="utf-8"?>
<!-- Generator: Adobe Illustrator 16.0.0, SVG Export Plug-In . SVG Version: 6.00 Build 0)  -->
<!DOCTYPE svg PUBLIC "-//W3C//DTD SVG 1.0//EN" "http://www.w3.org/TR/2001/REC-SVG-20010904/DTD/svg10.dtd">
<svg version="1.0"
	 id="svg1045" sodipodi:docname="ust.svg" inkscape:version="0.92.3 (unknown)" xmlns:dc="http://purl.org/dc/elements/1.1/" xmlns:cc="http://creativecommons.org/ns#" xmlns:rdf="http://www.w3.org/1999/02/22-rdf-syntax-ns#" xmlns:svg="http://www.w3.org/2000/svg" xmlns:sodipodi="http://sodipodi.sourceforge.net/DTD/sodipodi-0.dtd" xmlns:inkscape="http://www.inkscape.org/namespaces/inkscape"
	 xmlns="http://www.w3.org/2000/svg" xmlns:xlink="http://www.w3.org/1999/xlink" x="0px" y="0px" width="237px" height="59px"
	 viewBox="0 0 237 59" enable-background="new 0 0 237 59" xml:space="preserve">
<sodipodi:namedview  units="px" inkscape:window-maximized="1" inkscape:window-y="0" inkscape:pageshadow="2" inkscape:pageopacity="0.0" inkscape:window-x="0" inkscape:window-height="1043" inkscape:window-width="1920" inkscape:current-layer="layer1" inkscape:document-units="px" showgrid="false" inkscape:cy="-24.121149" inkscape:cx="-9.1350614" inkscape:zoom="1.979899" borderopacity="1.0" bordercolor="#666666" pagecolor="#ffffff" id="base">
	</sodipodi:namedview>
<g id="layer1" transform="translate(0,-281.38957)" inkscape:groupmode="layer" inkscape:label="Layer 1">
	<g id="g12" transform="matrix(0.30486917,0,0,-0.3141106,13.080275,285.46165)">
		<path id="path14" inkscape:connector-curvature="0" fill="#003366" d="M119.255-36.034h-5.333V1.845h-10.153v4.88h25.634v-4.88
			h-10.148V-36.034z"/>
	</g>
	<g id="g16" transform="matrix(0.30486917,0,0,-0.3141106,16.318475,283.34094)">
		<path id="path18" inkscape:connector-curvature="0" fill="#003366" d="M148.778-17.267v17.241h5.332v-42.758h-5.332v20.527
			h-20.356v-20.527h-5.325v42.758h5.325v-17.241H148.778z"/>
	</g>
	<g id="g20" transform="matrix(0.30486917,0,0,-0.3141106,17.416612,281.90812)">
		<path id="path22" inkscape:connector-curvature="0" fill="#003366" d="M158.79-4.589h22.964v-4.88h-17.639V-21.43h17.129v-4.88
			h-17.129v-16.157h17.639v-4.88H158.79V-4.589z"/>
	</g>
	<g id="g24" transform="matrix(0.30486917,0,0,-0.3141106,23.248578,283.34094)">
		<path id="path26" inkscape:connector-curvature="0" fill="#003366" d="M211.96-17.267v17.241h5.325v-42.758h-5.325v20.527h-20.356
			v-20.527h-5.333v42.758h5.333v-17.241H211.96z"/>
	</g>
	<g id="g28" transform="matrix(0.30486917,0,0,-0.3141106,-59.493267,421.36061)">
		<g>
			<g>
				<defs>
					<polygon id="SVGID_1_" points="195.144,257.778 972.527,257.778 971.989,446.16 195.144,445.61 					"/>
				</defs>
				<clipPath id="SVGID_2_">
					<use xlink:href="#SVGID_1_"  overflow="visible"/>
				</clipPath>
				<g id="g30" clip-path="url(#SVGID_2_)">
					<g id="g36" transform="translate(284.3813,438.0363)">
						<path id="path38" inkscape:connector-curvature="0" fill="#003366" d="M248.039-21.054c0,9.411-7.029,17.295-17.068,17.295
							c-10.039,0-17.067-7.884-17.067-17.295c0-9.754,7.824-17.295,17.067-17.295C240.212-38.349,248.039-30.808,248.039-21.054
							 M253.372-21.054c0-12.706-10.039-22.288-22.402-22.288s-22.402,9.582-22.402,22.288c0,12.246,10.148,22.284,22.402,22.284
							C243.217,1.23,253.372-8.807,253.372-21.054"/>
					</g>
					<g id="g40" transform="translate(287.1719,444.2325)">
						<path id="path42" inkscape:connector-curvature="0" fill="#003366" d="M255.795-3.831l32.096-33.627v31.581h5.329v-44.516
							l-32.09,33.627v-31.869h-5.333v44.803H255.795z"/>
					</g>
					<g id="g44" transform="translate(309.543,438.0802)">
						<path id="path46" inkscape:connector-curvature="0" fill="#003366" d="M317.978-20.931v-1.702
							c0-11.735-8.284-20.752-20.241-20.752c-11.97,0-21.612,10.319-21.612,22.169c0,12.31,9.872,22.403,22.166,22.403
							c6.643,0,13.223-3.006,17.413-8.282l-3.741-3.571c-3.062,4.196-8.226,6.977-13.441,6.977c-9.578,0-17.06-7.771-17.06-17.353
							c0-8.965,7.374-17.468,16.606-17.468c6.643,0,13.774,5.73,14.004,12.699h-11.057v4.881H317.978z"/>
					</g>
					<g id="g48" transform="translate(321.7832,443.692)">
						<path id="path50" inkscape:connector-curvature="0" fill="#003366" d="M351.998-5.334h6.977l-19.223-19.223l19.568-23.535
							h-7.201l-16.109,19.904l-2.149-2.041v-17.863h-5.337v42.758h5.337v-18.542L351.998-5.334z"/>
					</g>
					<g id="g52" transform="translate(334.375,438.0363)">
						<path id="path54" inkscape:connector-curvature="0" fill="#003366" d="M387-21.054c0,9.411-7.044,17.295-17.08,17.295
							c-10.029,0-17.07-7.884-17.07-17.295c0-9.754,7.826-17.295,17.07-17.295C379.159-38.349,387-30.808,387-21.054
							 M392.311-21.054c0-12.706-10.029-22.288-22.391-22.288c-12.352,0-22.397,9.582-22.397,22.288
							c0,12.246,10.154,22.284,22.397,22.284C382.17,1.23,392.311-8.807,392.311-21.054"/>
					</g>
					<g id="g56" transform="translate(337.1641,444.2325)">
						<path id="path58" inkscape:connector-curvature="0" fill="#003366" d="M394.75-3.831l32.09-33.627v31.581h5.337v-44.516
							l-32.103,33.627v-31.869h-5.324V-3.831z"/>
					</g>
					<g id="g60" transform="translate(359.5352,438.0802)">
						<path id="path62" inkscape:connector-curvature="0" fill="#003366" d="M456.931-20.931v-1.702
							c0-11.735-8.277-20.752-20.238-20.752c-11.98,0-21.615,10.319-21.615,22.169c0,12.31,9.866,22.403,22.166,22.403
							c6.643,0,13.223-3.006,17.419-8.282l-3.741-3.571c-3.069,4.196-8.232,6.977-13.441,6.977c-9.584,0-17.067-7.771-17.067-17.353
							c0-8.965,7.374-17.468,16.606-17.468c6.637,0,13.78,5.73,14.011,12.699h-11.057v4.881H456.931z"/>
					</g>
					<g id="g64" transform="translate(235.9492,425.692)">
						<path id="path66" inkscape:connector-curvature="0" fill="#003366" d="M113.42-55.366v-25.229
							c0-6.977,2.098-13.443,10.319-13.443c8.224,0,10.321,6.467,10.321,13.443v25.229h5.333v-27.045
							c0-9.411-5.843-16.621-15.654-16.621c-9.808,0-15.651,7.21-15.651,16.621v27.045H113.42z"/>
					</g>
					<g id="g68" transform="translate(244.7866,426.2325)">
						<path id="path70" inkscape:connector-curvature="0" fill="#003366" d="M137.984-53.862L170.08-87.49v31.581h5.329v-44.514
							l-32.09,33.627v-31.867h-5.333v44.802H137.984z"/>
					</g>
					<path id="path72" inkscape:connector-curvature="0" fill="#003366" d="M433.524,327.569h-5.333v42.758h5.333V327.569z"/>
					<g id="g74" transform="translate(264.2163,417.3204)">
						<path id="path76" inkscape:connector-curvature="0" fill="#003366" d="M191.99-78.634l12.699,31.643h5.843l-18.542-45.03
							l-18.603,45.03h5.843L191.99-78.634z"/>
					</g>
					<g id="g78" transform="translate(270.2324,425.692)">
						<path id="path80" inkscape:connector-curvature="0" fill="#003366" d="M208.712-55.366h22.964v-4.878h-17.631v-11.963h17.121
							v-4.878h-17.121v-16.154h17.631v-4.884h-22.964V-55.366z"/>
					</g>
					<g id="g82" transform="translate(279.6104,420.3351)">
						<path id="path84" inkscape:connector-curvature="0" fill="#003366" d="M234.777-70.254h1.701
							c5.444,0,11.343,1.024,11.343,7.827c0,6.691-6.354,7.657-11.626,7.657h-1.416v-15.484H234.777z M256.042-92.766h-6.463
							l-12.593,18.082h-2.209v-18.082h-5.332v42.759h6.466c3.799,0,7.882-0.058,11.287-1.988c3.568-2.094,5.612-6.123,5.612-10.205
							c0-6.123-4.086-11.222-10.265-11.962L256.042-92.766z"/>
					</g>
					<g id="g86" transform="translate(291.5225,423.546)">
						<path id="path88" inkscape:connector-curvature="0" fill="#003366" d="M267.888-61.329c-1.584,2.668-3.624,4.029-6.86,4.029
							c-3.405,0-7.148-2.327-7.148-6.067c0-3.348,3.296-5.105,5.958-6.129l3.061-1.191c6.07-2.378,10.601-5.722,10.601-12.879
							c0-7.76-6.004-13.319-13.662-13.319c-6.921,0-12.307,5.105-13.213,11.97l5.385,1.132c-0.056-4.71,3.685-8.108,8.282-8.108
							c4.595,0,7.883,3.855,7.883,8.326c0,4.607-3.685,6.579-7.374,8.121l-2.952,1.244c-4.872,2.099-9.294,4.88-9.294,10.836
							c0,6.917,6.123,11.056,12.59,11.056c4.762,0,8.674-2.324,10.998-6.467L267.888-61.329z"/>
					</g>
					<path id="path90" inkscape:connector-curvature="0" fill="#003366" d="M576.594,327.569h-5.333v42.758h5.333V327.569z"/>
					<g id="g92" transform="translate(301.3809,414.379)">
						<path id="path94" inkscape:connector-curvature="0" fill="#003366" d="M295.29-86.81h-5.337v37.88h-10.148v4.878h25.629
							v-4.878H295.29V-86.81z"/>
					</g>
					<g id="g96" transform="translate(304.1553,425.692)">
						<path id="path98" inkscape:connector-curvature="0" fill="#003366" d="M302.999-55.366h6.125l10.494-18.257l10.494,18.257
							h6.118l-13.947-24.154v-18.604h-5.33v18.604L302.999-55.366z"/>
					</g>
					<g id="g100" transform="translate(328.2051,420.0363)">
						<path id="path102" inkscape:connector-curvature="0" fill="#003366" d="M369.851-71.084c0,9.411-7.021,17.294-17.067,17.294
							c-10.042,0-17.06-7.883-17.06-17.294c0-9.756,7.816-17.295,17.06-17.295C362.035-88.379,369.851-80.84,369.851-71.084
							 M375.187-71.084c0-12.709-10.032-22.288-22.403-22.288c-12.364,0-22.397,9.579-22.397,22.288
							c0,12.245,10.151,22.284,22.397,22.284C365.046-48.801,375.187-58.839,375.187-71.084"/>
					</g>
					<g id="g104" transform="translate(332.5293,424.4015)">
						<path id="path106" inkscape:connector-curvature="0" fill="#003366" d="M381.869-58.952v-12.019h14.85v-4.88h-14.85V-96.83
							h-5.337v42.758h20.702v-4.88H381.869z"/>
					</g>
					<g id="g108" transform="translate(347.9043,423.546)">
						<path id="path110" inkscape:connector-curvature="0" fill="#003366" d="M424.604-61.329c-1.573,2.668-3.623,4.029-6.852,4.029
							c-3.402,0-7.143-2.327-7.143-6.067c0-3.348,3.286-5.105,5.955-6.129l3.059-1.191c6.067-2.378,10.603-5.722,10.603-12.879
							c0-7.76-6.009-13.319-13.662-13.319c-6.932,0-12.31,5.105-13.22,11.97l5.394,1.132c-0.058-4.71,3.684-8.108,8.267-8.108
							c4.609,0,7.883,3.855,7.883,8.326c0,4.607-3.671,6.579-7.374,8.121l-2.941,1.244c-4.875,2.099-9.302,4.88-9.302,10.836
							c0,6.917,6.131,11.056,12.601,11.056c4.76,0,8.668-2.324,10.993-6.467L424.604-61.329z"/>
					</g>
					<g id="g112" transform="translate(359.3242,423.5314)">
						<path id="path114" inkscape:connector-curvature="0" fill="#003366" d="M456.347-61.371
							c-3.062,2.725-7.265,4.196-11.285,4.196c-9.581,0-16.91-7.992-16.91-17.466c0-9.349,7.265-17.348,16.785-17.348
							c4.209,0,8.229,1.586,11.41,4.421v-6.299c-3.293-1.928-7.486-3.003-11.231-3.003c-12.191,0-22.275,9.7-22.275,22.061
							c0,12.65,10.138,22.515,22.73,22.515c3.741,0,7.54-0.906,10.776-2.896V-61.371L456.347-61.371z"/>
					</g>
					<path id="path116" inkscape:connector-curvature="0" fill="#003366" d="M827.751,327.569h-5.327v42.758h5.327V327.569z"/>
					<g id="g118" transform="translate(364.7852,425.692)">
						<path id="path120" inkscape:connector-curvature="0" fill="#003366" d="M471.525-55.366h22.964v-4.878h-17.627v-11.963h17.115
							v-4.878h-17.115v-16.154h17.627v-4.884h-22.964V-55.366z"/>
					</g>
					<g id="g122" transform="translate(372.6191,426.2325)">
						<path id="path124" inkscape:connector-curvature="0" fill="#003366" d="M493.298-53.862l32.09-33.628v31.581h5.337v-44.514
							l-32.103,33.627v-31.867h-5.324V-53.862L493.298-53.862z"/>
					</g>
					<g id="g126" transform="translate(392.916,423.5314)">
						<path id="path128" inkscape:connector-curvature="0" fill="#003366" d="M549.715-61.371
							c-3.059,2.725-7.255,4.196-11.272,4.196c-9.59,0-16.907-7.992-16.907-17.466c0-9.349,7.252-17.348,16.785-17.348
							c4.196,0,8.226,1.586,11.394,4.421v-6.299c-3.277-1.928-7.486-3.003-11.227-3.003c-12.179,0-22.275,9.7-22.275,22.061
							c0,12.65,10.135,22.515,22.736,22.515c3.748,0,7.534-0.906,10.769-2.896v-6.181H549.715z"/>
					</g>
					<g id="g130" transform="translate(394.7471,425.692)">
						<path id="path132" inkscape:connector-curvature="0" fill="#003366" d="M554.806-55.366h22.974v-4.878h-17.65v-11.963h17.137
							v-4.878H560.13v-16.154h17.65v-4.884h-22.974V-55.366L554.806-55.366z"/>
					</g>
					<g id="g134" transform="translate(238.9346,405.0831)">
						<path id="path136" inkscape:connector-curvature="0" fill="#003366" d="M121.718-112.646l-7.596-17.298h15.199
							L121.718-112.646z M111.906-134.825l-4.87-10.72h-5.731l20.413,44.57l20.417-44.57h-5.729l-4.875,10.72H111.906z"/>
					</g>
					<g id="g138" transform="translate(245.2964,408.2325)">
						<path id="path140" inkscape:connector-curvature="0" fill="#003366" d="M139.401-103.894l32.096-33.627v31.578h5.329v-44.511
							l-32.091,33.627v-31.867h-5.332v44.8H139.401z"/>
					</g>
					<g id="g142" transform="translate(258.6499,397.671)">
						<path id="path144" inkscape:connector-curvature="0" fill="#003366" d="M176.518-133.252h1.871
							c10.889,0,20.304,4.076,20.304,16.496c0,12.473-9.413,16.502-20.304,16.502h-1.871V-133.252z M171.186-95.378h8.847
							c13.1,0,23.989-6.914,23.989-21.15c0-14.575-10.662-21.604-24.159-21.604h-8.678V-95.378z"/>
					</g>
					<g id="g146" transform="translate(275.0181,396.379)">
						<path id="path148" inkscape:connector-curvature="0" fill="#003366" d="M222.013-136.841h-5.325v37.88h-10.153v4.875h25.634
							v-4.875h-10.156V-136.841L222.013-136.841z"/>
					</g>
					<g id="g150" transform="translate(278.9644,407.6906)">
						<path id="path152" inkscape:connector-curvature="0" fill="#003366" d="M232.983-105.398h22.964v-4.875h-17.631v-11.957
							h17.121v-4.884h-17.121v-16.157h17.631v-4.881h-22.964V-105.398z"/>
					</g>
					<g id="g154" transform="translate(295.1685,405.5314)">
						<path id="path156" inkscape:connector-curvature="0" fill="#003366" d="M278.022-111.403
							c-3.062,2.727-7.257,4.197-11.282,4.197c-9.587,0-16.9-7.996-16.9-17.472c0-9.346,7.258-17.342,16.783-17.342
							c4.195,0,8.226,1.586,11.399,4.415v-6.299c-3.288-1.921-7.484-2.997-11.229-2.997c-12.19,0-22.285,9.7-22.285,22.067
							c0,12.647,10.148,22.5,22.738,22.5c3.746,0,7.544-0.908,10.776-2.888V-111.403L278.022-111.403z"/>
					</g>
					<g id="g158" transform="translate(303.6777,403.132)">
						<path id="path160" inkscape:connector-curvature="0" fill="#003366" d="M301.674-118.069v17.23h5.314v-42.755h-5.314v20.532
							h-20.364v-20.532h-5.33v42.755h5.33v-17.23H301.674z"/>
					</g>
					<g id="g162" transform="translate(307.1406,408.2325)">
						<path id="path164" inkscape:connector-curvature="0" fill="#003366" d="M311.299-103.894l32.099-33.627v31.578h5.324v-44.511
							l-32.087,33.627v-31.867h-5.337V-103.894L311.299-103.894z"/>
					</g>
					<g id="g166" transform="translate(328.8525,402.0363)">
						<path id="path168" inkscape:connector-curvature="0" fill="#003366" d="M371.65-121.115c0,9.408-7.034,17.292-17.08,17.292
							c-10.029,0-17.06-7.884-17.06-17.292c0-9.756,7.816-17.298,17.06-17.298C363.822-138.413,371.65-130.871,371.65-121.115
							 M376.974-121.115c0-12.713-10.032-22.291-22.403-22.291c-12.352,0-22.397,9.582-22.397,22.291
							c0,12.243,10.154,22.279,22.397,22.279C366.833-98.836,376.974-108.872,376.974-121.115"/>
					</g>
					<g id="g170" transform="translate(333.1885,397.671)">
						<path id="path172" inkscape:connector-curvature="0" fill="#003366" d="M383.702-133.252h12.989v-4.881h-18.316v42.755h5.327
							V-133.252z"/>
					</g>
					<g id="g174" transform="translate(347.3506,402.0363)">
						<path id="path176" inkscape:connector-curvature="0" fill="#003366" d="M423.066-121.115c0,9.408-7.031,17.292-17.067,17.292
							c-10.042,0-17.073-7.884-17.073-17.292c0-9.756,7.829-17.298,17.073-17.298C415.237-138.413,423.066-130.871,423.066-121.115
							 M428.39-121.115c0-12.713-10.033-22.291-22.391-22.291c-12.355,0-22.397,9.582-22.397,22.291
							c0,12.243,10.151,22.279,22.397,22.279C418.248-98.836,428.39-108.872,428.39-121.115"/>
					</g>
					<g id="g178" transform="translate(360.584,402.0802)">
						<path id="path180" inkscape:connector-curvature="0" fill="#003366" d="M459.847-120.994v-1.694
							c0-11.739-8.284-20.762-20.238-20.762c-11.964,0-21.615,10.322-21.615,22.179c0,12.299,9.872,22.391,22.176,22.391
							c6.634,0,13.21-3.003,17.416-8.285l-3.741-3.566c-3.062,4.197-8.239,6.98-13.444,6.98c-9.587,0-17.07-7.776-17.07-17.351
							c0-8.96,7.374-17.463,16.605-17.463c6.643,0,13.787,5.724,14.017,12.688h-11.057v4.884H459.847L459.847-120.994z"/>
					</g>
					<g id="g182" transform="translate(360.959,407.6906)">
						<path id="path184" inkscape:connector-curvature="0" fill="#003366" d="M460.888-105.398h6.134l10.478-18.25l10.494,18.25
							h6.137l-13.953-24.157v-18.598h-5.337v18.598L460.888-105.398z"/>
					</g>
					<g id="g186" transform="translate(217.8101,435.4684)">
						<path id="path188" inkscape:connector-curvature="0" fill="#996600" d="M63.002-28.19c0.884,1.107,1.195,3.076,1.195,3.076
							H11.158c0,0,0.655-2.192,1.211-3.076H63.002z"/>
					</g>
					<g id="g190" transform="translate(216.9956,434.276)">
						<path id="path192" inkscape:connector-curvature="0" fill="#996600" d="M60.738-31.506c0.987,0.874,1.981,2.646,1.981,2.646
							H14.167c0,0,0.541-1.326,1.762-2.646H60.738z"/>
					</g>
					<g id="g194" transform="translate(215.9819,433.2008)">
						<path id="path196" inkscape:connector-curvature="0" fill="#996600" d="M57.921-34.494c1.206,0.644,2.181,1.979,2.181,1.979
							H18.579c0,0,0.995-1.096,1.97-1.979H57.921z"/>
					</g>
					<g id="g198" transform="translate(214.7017,432.1813)">
						<path id="path200" inkscape:connector-curvature="0" fill="#996600" d="M54.363-37.328c1.185,0.454,2.524,1.55,2.524,1.55
							H24.489c0,0,0-0.241,2.302-1.55H54.363z"/>
					</g>
					<g id="g202" transform="translate(208.3911,431.5455)">
						<path id="path204" inkscape:connector-curvature="0" fill="#996600" d="M36.822-39.096c0,0,3.41-1.991,10.109-1.991
							c6.709,0,10.984,1.991,10.984,1.991H36.822z"/>
					</g>
					<g id="g206" transform="translate(208.2476,430.3531)">
						<path id="path208" inkscape:connector-curvature="0" fill="#003366" d="M36.423-42.411c0,0,4.063-0.221,6.48-2.081
							c2.302-1.993,4.073-5.27,4.073-5.27s1.417,3.168,3.73,4.816c2.318,1.772,6.048,2.535,6.048,2.535h41.855l8.24-12.204H69.264
							c0,0-2.635-0.109-6.586-2.422c-2.09-1.188-3.632-3.288-3.632-3.288s-0.311-0.987-0.775-1.531
							c-0.431-0.552-0.764-0.995-1.304-1.206c-0.556-0.23-0.445-0.098-0.445-0.098H36.967c0,0-0.786,0.309-1.198,0.987
							c-0.442,0.65-0.12,0.431-0.551,0.959c-0.333,0.557-1.108,1.996-4.074,3.965c-3.07,1.996-6.049,2.192-6.049,2.192h-38.2
							l8.328,12.646H36.423L36.423-42.411z"/>
					</g>
					<g id="g210" transform="translate(200.4253,425.7887)">
						<path id="path212" inkscape:connector-curvature="0" fill="#003366" d="M14.681-55.095v-62.378c0,0,0.223-5.512,4.838-12.98
							c4.617-7.462,11.315-10.872,11.315-10.872l5.271,8.239c0,0-4.608,2.745-8.127,8.018c-3.402,5.267-3.402,9.787-3.402,9.787
							v60.187H14.681z"/>
					</g>
					<g id="g214" transform="translate(219.146,425.8473)">
						<path id="path216" inkscape:connector-curvature="0" fill="#003366" d="M66.716-54.933v-60.183c0,0-0.764-6.05-3.621-10.347
							c-2.857-4.384-7.596-7.903-7.596-7.903l5.072-8.127c0,0,7.683,5.602,11.424,11.537c3.724,5.935,4.63,14.839,4.63,14.839
							v60.182h-9.909V-54.933z"/>
					</g>
					<g id="g218" transform="translate(196.2739,425.7887)">
						<path id="path220" inkscape:connector-curvature="0" fill="#003366" d="M3.141-55.095v-62.624c0,0,0.644-9.675,6.69-19.773
							c6.056-10.098,17.027-17.143,17.027-17.143l5.175,8.239c0,0-7.034,3.74-12.635,12.312c-5.737,8.683-6.048,16.611-6.048,16.611
							v62.38H3.141V-55.095z"/>
					</g>
					<g id="g222" transform="translate(208.2476,424.0455)">
						<path id="path224" inkscape:connector-curvature="0" fill="#996600" d="M36.423-59.943v-66.131c0,0-0.242-0.224-0.319-1.194
							c-0.123-1.001-0.775-1.66-0.775-1.66l-22.08-36.586h67.674l-22.088,37.361l-0.652,1.657l-0.224,1.753v64.682h-8.234v-67.12
							c0,0,0-0.973,0.328-1.747c0.199-0.777,0.652-1.974,0.652-1.974l13.61-22.413H29.824l13.41,22.304c0,0,0.442,0.752,0.774,1.859
							c0.219,0.998,0.311,1.971,0.311,1.971v67.238H36.423z"/>
					</g>
					<g id="g226" transform="translate(223.186,425.8473)">
						<path id="path228" inkscape:connector-curvature="0" fill="#003366" d="M77.944-54.933v-61.514c0,0-0.086-7.909-5.921-17.031
							c-5.814-9.125-12.526-12.977-12.526-12.977l4.951-8.326c0,0,10.09,6.376,16.477,16.478
							c6.253,10.098,7.028,21.856,7.028,21.856v61.514H77.944z"/>
					</g>
					<g id="g230" transform="translate(204.0024,436.7487)">
						<path id="path232" inkscape:connector-curvature="0" fill="#996600" d="M24.623-24.633c0,0-3.386,18.547,10.22,27.802
							c0,0,6.157,5.693,16.147,5.693c10.662,0,16.807-5.59,16.807-5.59C82.624-7.591,78.24-24.633,78.24-24.633H24.623z"/>
					</g>
				</g>
			</g>
		</g>
	</g>
</g>
</svg>
